<?xml version="1.0" encoding="UTF-8" standalone="no"?>
<!DOCTYPE svg PUBLIC "-//W3C//DTD SVG 1.1//EN" "http://www.w3.org/Graphics/SVG/1.1/DTD/svg11.dtd">
<svg width="100%" height="100%" viewBox="0 0 187 32" version="1.1" xmlns="http://www.w3.org/2000/svg" xmlns:xlink="http://www.w3.org/1999/xlink" xml:space="preserve" xmlns:serif="http://www.serif.com/" style="fill-rule:evenodd;clip-rule:evenodd;stroke-linejoin:round;stroke-miterlimit:2;">
    <g id="Artboard1" transform="matrix(1,0,0,0.326156,0,0)">
        <rect x="0" y="0" width="186.231" height="96.716" style="fill:none;"/>
        <g transform="matrix(1,0,0,3.06601,-329.742,-2154.59)">
            <g id="Layer-1" serif:id="Layer 1">
                <g id="g16713">
                    <g id="path15569" transform="matrix(1,0,0,1,0,-64.7437)">
                        <path d="M339.706,785.73C334.259,785.73 330.242,781.918 330.242,776.707C330.242,771.47 334.363,767.476 339.783,767.476C341.857,767.476 343.698,767.995 346.109,769.058L346.109,772.091C344.035,770.951 341.857,770.148 339.731,770.148C335.867,770.148 333.197,773.127 333.197,776.628C333.197,780.311 335.841,783.059 340.069,783.059C341.857,783.059 342.739,782.644 343.517,782.359L343.517,778.288L339.394,778.288L340.25,775.566L346.473,775.566L346.473,784.252C344.113,785.288 342.169,785.73 339.706,785.73" style="fill:white;fill-rule:nonzero;"/>
                    </g>
                    <g id="path15573" transform="matrix(1,0,0,1,0,-64.7437)">
                        <path d="M356.714,770.302L355.287,770.302L355.287,775.28L356.714,775.28C359.126,775.28 359.826,773.959 359.8,772.663C359.774,771.184 358.892,770.302 356.714,770.302M362.496,785.47L358.426,779.455C357.516,778.132 357.18,777.899 356.766,777.899L355.287,777.899L355.287,785.47L352.332,785.47L352.332,767.683L356.818,767.683C360.5,767.683 362.78,769.499 362.78,772.739C362.78,774.788 361.823,776.291 359.93,777.044C360.603,777.148 366.074,785.47 366.1,785.47L362.496,785.47Z" style="fill:white;fill-rule:nonzero;"/>
                    </g>
                    <g id="path15577" transform="matrix(1,0,0,1,0,-64.7437)">
                        <path d="M369.781,785.47L369.781,767.683L380.153,767.683L379.193,770.407L372.737,770.407L372.737,775.177L379.245,775.177L379.245,777.899L372.737,777.899L372.737,782.749L380.179,782.749L380.179,785.47L369.781,785.47Z" style="fill:white;fill-rule:nonzero;"/>
                    </g>
                    <g id="path15581" transform="matrix(1,0,0,1,0,-64.7437)">
                        <path d="M385.91,785.47L385.91,767.683L396.281,767.683L395.321,770.407L388.865,770.407L388.865,775.177L395.374,775.177L395.374,777.899L388.865,777.899L388.865,782.749L396.306,782.749L396.306,785.47L385.91,785.47Z" style="fill:white;fill-rule:nonzero;"/>
                    </g>
                    <g id="path15585" transform="matrix(1,0,0,1,0,-64.7437)">
                        <path d="M415.909,785.47L404.863,772.739L404.863,785.47L402.037,785.47L402.037,767.683L404.293,767.683L415.649,780.803L415.649,767.683L418.502,767.683L418.502,785.47L415.909,785.47Z" style="fill:white;fill-rule:nonzero;"/>
                    </g>
                    <g id="path15589" transform="matrix(1,0,0,1,0,-64.7437)">
                        <path d="M425.036,785.47L425.036,767.683L435.406,767.683L434.446,770.407L427.992,770.407L427.992,775.177L434.498,775.177L434.498,777.899L427.992,777.899L427.992,782.749L435.432,782.749L435.432,785.47L425.036,785.47Z" style="fill:white;fill-rule:nonzero;"/>
                    </g>
                    <g id="path15593" transform="matrix(1,0,0,1,0,-64.7437)">
                        <path d="M461.465,785.47L452.416,776.681L452.416,785.47L449.459,785.47L449.459,767.683L452.416,767.683L452.416,775.826L459.881,767.683L463.592,767.683L455.839,776.11L465.355,785.47L461.465,785.47Z" style="fill:white;fill-rule:nonzero;"/>
                    </g>
                    <g id="path15595" transform="matrix(1,0,0,1,0,-64.7437)">
                        <rect x="468.775" y="767.683" width="2.957" height="17.787" style="fill:white;fill-rule:nonzero;"/>
                    </g>
                    <g id="path15599" transform="matrix(1,0,0,1,0,-64.7437)">
                        <path d="M492.137,785.47L481.092,772.739L481.092,785.47L478.265,785.47L478.265,767.683L480.521,767.683L491.877,780.803L491.877,767.683L494.729,767.683L494.729,785.47L492.137,785.47Z" style="fill:white;fill-rule:nonzero;"/>
                    </g>
                    <g id="path15603" transform="matrix(1,0,0,1,0,-64.7437)">
                        <path d="M508.706,785.73C503.26,785.73 499.241,781.918 499.241,776.707C499.241,771.47 503.366,767.476 508.784,767.476C510.858,767.476 512.7,767.995 515.11,769.058L515.11,772.091C513.036,770.951 510.858,770.148 508.732,770.148C504.869,770.148 502.198,773.127 502.198,776.628C502.198,780.311 504.844,783.059 509.069,783.059C510.858,783.059 511.74,782.644 512.518,782.359L512.518,778.288L508.394,778.288L509.249,775.566L515.473,775.566L515.473,784.252C513.113,785.288 511.169,785.73 508.706,785.73" style="fill:white;fill-rule:nonzero;"/>
                    </g>
                    <g id="path15607" transform="matrix(1,0,0,1,0,-64.7437)">
                        <path d="M374.437,795.876L373.418,795.876L373.418,797.724L374.437,797.724C375.43,797.724 375.65,797.268 375.65,796.771C375.65,796.263 375.251,795.876 374.437,795.876M374.327,793.231L373.418,793.231L373.418,794.883L374.313,794.883C374.893,794.883 375.278,794.58 375.278,794.056C375.278,793.534 374.906,793.231 374.327,793.231M374.603,798.812L372.205,798.812L372.205,792.14L374.301,792.14C375.747,792.14 376.519,792.858 376.519,793.904C376.519,794.802 376.09,795.131 375.61,795.298C376.587,795.477 376.905,796.263 376.905,796.896C376.905,798.15 375.886,798.812 374.603,798.812" style="fill:white;fill-rule:nonzero;"/>
                    </g>
                    <g id="path15611" transform="matrix(1,0,0,1,0,-64.7437)">
                        <path d="M382.031,798.949C380.584,798.949 379.179,798.164 379.179,796.357L379.179,792.141L380.391,792.141L380.391,795.905C380.391,796.648 380.474,796.965 380.749,797.269C381.093,797.64 381.521,797.833 382.044,797.833C382.707,797.833 383.188,797.598 383.464,797.294C383.768,796.951 383.849,796.468 383.849,795.848L383.849,792.141L385.064,792.141L385.064,796.262C385.064,797.889 384.071,798.949 382.031,798.949" style="fill:white;fill-rule:nonzero;"/>
                    </g>
                    <g id="path15615" transform="matrix(1,0,0,1,0,-64.7437)">
                        <path d="M389.5,793.231L388.756,793.231L388.756,795.104L389.5,795.104C390.41,795.104 390.659,794.649 390.659,794.153C390.659,793.644 390.355,793.231 389.5,793.231M391.499,798.812L390.246,796.772C389.928,796.263 389.763,796.192 389.611,796.192L388.756,796.192L388.756,798.812L387.544,798.812L387.544,792.156L389.679,792.156C391.059,792.156 391.912,792.844 391.912,794.056C391.912,794.828 391.527,795.517 390.811,795.807C391.099,795.848 392.822,798.812 392.891,798.812L391.499,798.812Z" style="fill:white;fill-rule:nonzero;"/>
                    </g>
                    <g id="path15619" transform="matrix(1,0,0,1,0,-64.7437)">
                        <path d="M397.26,795.82L397.26,798.812L396.045,798.812L396.045,795.876L393.607,792.14L395.013,792.14L396.653,794.704L398.321,792.14L399.671,792.14L397.26,795.82Z" style="fill:white;fill-rule:nonzero;"/>
                    </g>
                    <g id="path15623" transform="matrix(1,0,0,1,0,-64.7437)">
                        <path d="M406.823,798.936C406.093,798.936 405.432,798.798 404.824,798.426L404.824,797.145C405.403,797.489 405.857,797.805 406.783,797.805C407.457,797.805 407.773,797.502 407.773,797.129C407.773,796.538 407.223,796.29 406.92,796.125C405.445,795.312 404.743,794.912 404.743,793.892C404.743,792.582 405.9,792.004 406.975,792.004C407.307,792.004 407.952,792.015 408.725,792.374L408.725,793.629C408.311,793.382 407.773,793.12 406.947,793.12C406.093,793.12 405.983,793.602 405.983,793.768C405.983,794.249 406.34,794.414 407.651,795.117C408.823,795.738 409.015,796.496 409.015,797.034C409.015,798.398 407.761,798.936 406.823,798.936" style="fill:white;fill-rule:nonzero;"/>
                    </g>
                    <g id="path15627" transform="matrix(1,0,0,1,0,-64.7437)">
                        <path d="M415.548,793.231L413.59,793.231L413.59,798.812L412.377,798.812L412.377,793.231L410.17,793.231L410.17,792.141L415.946,792.141L415.548,793.231Z" style="fill:white;fill-rule:nonzero;"/>
                    </g>
                    <g id="path15631" transform="matrix(1,0,0,1,0,-64.7437)">
                        <path d="M425.207,793.231L422.466,793.231L422.466,794.843L425.139,794.843L425.139,795.932L422.466,795.932L422.466,797.724L425.4,797.724L425.4,798.812L421.252,798.812L421.252,792.141L425.607,792.141L425.207,793.231Z" style="fill:white;fill-rule:nonzero;"/>
                    </g>
                    <g id="path15635" transform="matrix(1,0,0,1,0,-64.7437)">
                        <path d="M430.072,793.231L428.86,793.231L428.86,797.724L430.072,797.724C431.656,797.724 432.386,796.717 432.386,795.477C432.386,794.236 431.656,793.231 430.072,793.231M430.156,798.812L427.645,798.812L427.645,792.156L430.156,792.156C432.304,792.156 433.641,793.629 433.641,795.477C433.641,797.323 432.304,798.812 430.156,798.812" style="fill:white;fill-rule:nonzero;"/>
                    </g>
                    <g id="path15639" transform="matrix(1,0,0,1,0,-64.7437)">
                        <path d="M441.222,798.812L441.222,794.29L439.279,797.06L438.727,797.06L436.783,794.29L436.783,798.812L435.571,798.812L435.571,792.156L436.633,792.156L439.003,795.53L441.374,792.156L442.434,792.156L442.434,798.812L441.222,798.812Z" style="fill:white;fill-rule:nonzero;"/>
                    </g>
                    <g id="path15643" transform="matrix(1,0,0,1,0,-64.7437)">
                        <path d="M447.768,798.949C446.32,798.949 444.916,798.164 444.916,796.357L444.916,792.141L446.127,792.141L446.127,795.905C446.127,796.648 446.211,796.965 446.486,797.269C446.831,797.64 447.258,797.833 447.782,797.833C448.443,797.833 448.924,797.598 449.2,797.294C449.504,796.951 449.587,796.468 449.587,795.848L449.587,792.141L450.8,792.141L450.8,796.262C450.8,797.889 449.807,798.949 447.768,798.949" style="fill:white;fill-rule:nonzero;"/>
                    </g>
                    <g id="path15647" transform="matrix(1,0,0,1,0,-64.7437)">
                        <path d="M458.256,798.812L454.493,794.097L454.493,798.812L453.28,798.812L453.28,792.141L454.45,792.141L458.241,796.91L458.241,792.141L459.454,792.141L459.454,798.812L458.256,798.812Z" style="fill:white;fill-rule:nonzero;"/>
                    </g>
                    <g id="path15651" transform="matrix(1,0,0,1,0,-64.7437)">
                        <path d="M464.443,793.231L463.231,793.231L463.231,797.724L464.443,797.724C466.028,797.724 466.756,796.717 466.756,795.477C466.756,794.236 466.028,793.231 464.443,793.231M464.526,798.812L462.016,798.812L462.016,792.156L464.526,792.156C466.675,792.156 468.012,793.629 468.012,795.477C468.012,797.323 466.675,798.812 464.526,798.812" style="fill:white;fill-rule:nonzero;"/>
                    </g>
                    <g id="path15655" transform="matrix(1,0,0,1,0,-64.7437)">
                        <path d="M471.318,798.936C470.589,798.936 469.928,798.798 469.321,798.426L469.321,797.145C469.9,797.489 470.354,797.805 471.28,797.805C471.954,797.805 472.269,797.502 472.269,797.129C472.269,796.538 471.718,796.29 471.416,796.125C469.941,795.312 469.238,794.912 469.238,793.892C469.238,792.582 470.396,792.004 471.472,792.004C471.802,792.004 472.449,792.015 473.221,792.374L473.221,793.629C472.808,793.382 472.269,793.12 471.444,793.12C470.589,793.12 470.48,793.602 470.48,793.768C470.48,794.249 470.837,794.414 472.146,795.117C473.318,795.738 473.51,796.496 473.51,797.034C473.51,798.398 472.257,798.936 471.318,798.936" style="fill:white;fill-rule:nonzero;"/>
                    </g>
                </g>
            </g>
        </g>
    </g>
</svg>
