<?xml version="1.0" encoding="UTF-8" standalone="no"?>
<!DOCTYPE svg PUBLIC "-//W3C//DTD SVG 1.1//EN" "http://www.w3.org/Graphics/SVG/1.1/DTD/svg11.dtd">
<svg width="100%" height="100%" viewBox="0 0 153 47" version="1.1" xmlns="http://www.w3.org/2000/svg" xmlns:xlink="http://www.w3.org/1999/xlink" xml:space="preserve" xmlns:serif="http://www.serif.com/" style="fill-rule:evenodd;clip-rule:evenodd;stroke-linejoin:round;stroke-miterlimit:2;">
    <g transform="matrix(1,0,0,1,0,-1)">
        <g id="_----To-Upload----" serif:id="----To-Upload----">
            <g id="Revolution-Bars-Group-Home-1366--Share-Price-" serif:id="Revolution-Bars-Group-Home-1366-(Share-Price)">
                <g id="Footers-Small-1366-Footer-Small" serif:id="Footers/Small/1366-Footer-Small">
                    <g>
                        <g id="Group-30">
                            <path id="Fill-1" d="M0.018,30.905L151.898,30.905L151.898,30.321L0.018,30.321L0.018,30.905Z" style="fill:white;"/>
                            <g id="Group-29" transform="matrix(1,0,0,1,0,0.9414)">
                                <path id="Fill-2" d="M10.148,24.579L6.312,24.567L3.124,17.993L3.124,24.539L0,24.539L0,0.233L1.79,0.233C3.814,0.567 5.422,1.539 6.616,3.149C7.776,4.713 8.462,6.177 8.674,7.535C8.776,8.263 8.826,8.983 8.826,9.695C8.826,10.395 8.776,11.085 8.674,11.759C8.462,13.143 7.536,14.715 5.894,16.469L10.148,24.579ZM5.574,9.787C5.574,8.537 5.408,7.527 5.08,6.751C4.7,5.879 4.046,5.137 3.124,4.527L3.124,13.811C3.936,13.683 4.566,13.185 5.016,12.311C5.388,11.583 5.574,10.743 5.574,9.787Z" style="fill:white;"/>
                                <path id="Fill-4" d="M16.467,24.593L16.467,0.195L23.769,0.195L23.769,3.583L19.643,3.583L19.643,11.055L22.473,11.055L22.473,14.391L19.643,14.391L19.643,21.125L24.087,21.125L24.087,24.593L16.467,24.593Z" style="fill:white;"/>
                                <path id="Fill-6" d="M34.936,24.593L29.932,0.207L33.398,0.207L35.952,13.189L38.478,0.275L41.856,0.275L36.902,24.593L34.936,24.593Z" style="fill:white;"/>
                                <path id="Fill-8" d="M48.936,21.597C48.032,19.931 47.42,17.979 47.108,15.741C46.938,14.597 46.856,13.451 46.856,12.299C46.856,11.201 46.93,10.103 47.082,9.007C47.38,6.747 47.934,4.863 48.746,3.351C49.874,1.263 51.448,0.225 53.472,0.233C55.342,0.243 56.85,1.263 57.992,3.297C58.89,4.899 59.478,6.803 59.758,9.007C59.886,10.067 59.948,11.125 59.948,12.179C59.948,13.355 59.868,14.539 59.708,15.727C59.394,17.967 58.78,19.925 57.866,21.597C56.528,23.557 55.048,24.539 53.42,24.539C51.76,24.539 50.266,23.557 48.936,21.597M55.454,19.275C55.97,18.161 56.328,16.793 56.532,15.173C56.65,14.193 56.71,13.203 56.71,12.205C56.71,11.393 56.672,10.581 56.594,9.763C56.4,7.791 56.112,6.389 55.732,5.551C55.164,4.319 54.374,3.703 53.356,3.703C52.478,3.703 51.72,4.349 51.084,5.645C50.66,6.501 50.364,7.867 50.196,9.747C50.11,10.585 50.066,11.417 50.066,12.245C50.066,13.261 50.128,14.273 50.244,15.281C50.458,17.117 50.824,18.471 51.35,19.343C51.842,20.557 52.518,21.161 53.384,21.151C54.186,21.141 54.878,20.517 55.454,19.275" style="fill:white;"/>
                                <path id="Fill-10" d="M66.444,24.593L66.444,0.195L69.62,0.195L69.62,21.125L74.066,21.125L74.066,24.593L66.444,24.593Z" style="fill:white;"/>
                                <path id="Fill-12" d="M85.2,24.539C83.43,24.575 82.068,23.995 81.11,22.799C80.246,21.737 79.816,20.059 79.816,17.765L79.816,0.275L82.992,0.261L82.992,17.723C82.992,18.973 83.126,19.833 83.398,20.301C83.702,20.833 84.304,21.115 85.2,21.153C86.066,21.177 86.656,20.911 86.972,20.349C87.29,19.787 87.448,18.907 87.448,17.709L87.448,0.059L90.674,0.059L90.674,17.617C90.674,19.963 90.222,21.677 89.316,22.757C88.35,23.909 86.978,24.501 85.2,24.539" style="fill:white;"/>
                                <path id="Fill-14" d="M99.989,24.593L99.989,3.607L96.787,3.607L96.787,0.219L106.365,0.219L106.365,3.607L103.201,3.607L103.201,24.593L99.989,24.593Z" style="fill:white;"/>
                                <path id="Fill-16" d="M112.662,24.592L115.838,24.592L115.838,0.192L112.662,0.192L112.662,24.592Z" style="fill:white;"/>
                                <path id="Fill-18" d="M124.463,21.597C123.559,19.931 122.947,17.979 122.635,15.741C122.465,14.597 122.383,13.451 122.383,12.299C122.383,11.201 122.457,10.103 122.609,9.007C122.907,6.747 123.461,4.863 124.273,3.351C125.401,1.263 126.975,0.225 128.999,0.233C130.869,0.243 132.375,1.263 133.519,3.297C134.417,4.899 135.005,6.803 135.285,9.007C135.413,10.067 135.475,11.125 135.475,12.179C135.475,13.355 135.395,14.539 135.235,15.727C134.921,17.967 134.307,19.925 133.393,21.597C132.055,23.557 130.575,24.539 128.947,24.539C127.287,24.539 125.793,23.557 124.463,21.597M130.981,19.275C131.497,18.161 131.855,16.793 132.059,15.173C132.177,14.193 132.237,13.203 132.237,12.205C132.237,11.393 132.197,10.581 132.121,9.763C131.927,7.791 131.639,6.389 131.259,5.551C130.691,4.319 129.899,3.703 128.883,3.703C128.003,3.703 127.245,4.349 126.609,5.645C126.185,6.501 125.891,7.867 125.721,9.747C125.637,10.585 125.593,11.417 125.593,12.245C125.593,13.261 125.653,14.273 125.771,15.281C125.985,17.117 126.351,18.471 126.877,19.343C127.367,20.557 128.045,21.161 128.911,21.151C129.713,21.141 130.405,20.517 130.981,19.275" style="fill:white;"/>
                                <path id="Fill-19" d="M141.7,0.193L143.632,0.193L148.67,13.089L148.67,0.245L151.898,0.245L151.898,24.511L149.892,24.511L144.876,11.679L144.876,24.579L141.7,24.591L141.7,0.193Z" style="fill:white;"/>
                                <path id="Fill-20" d="M0.04,34.489L2.808,34.489C4.79,34.489 6.054,35.723 6.054,37.521L6.054,37.685C6.054,38.829 5.542,39.591 4.688,40.009C5.868,40.371 6.74,41.425 6.74,43.023L6.74,43.259C6.74,45.401 5.406,46.835 2.962,46.835L0.04,46.835L0.04,34.489ZM2.808,39.355C3.784,39.355 4.312,38.811 4.312,37.793L4.312,37.685C4.312,36.651 3.748,36.121 2.756,36.121L1.784,36.121L1.784,39.355L2.808,39.355ZM2.912,45.201C4.278,45.201 4.944,44.421 4.944,43.151L4.944,42.987C4.944,41.715 4.26,40.879 2.894,40.879L1.784,40.879L1.784,45.201L2.912,45.201Z" style="fill:white;"/>
                                <path id="Fill-21" d="M19.59,34.381L19.812,34.381L23.69,46.837L21.81,46.837L21.366,45.293L17.93,45.293L17.488,46.837L15.712,46.837L19.59,34.381ZM18.394,43.713L20.906,43.713L20.102,40.899C19.914,40.245 19.692,39.247 19.676,39.101C19.64,39.211 19.418,40.227 19.232,40.899L18.394,43.713Z" style="fill:white;"/>
                                <path id="Fill-22" d="M36.508,43.749C36.234,43.805 35.962,43.823 35.688,43.823L35.14,43.823L35.14,46.835L33.346,46.835L33.346,34.491L35.688,34.491C38.184,34.491 39.874,36.177 39.874,39.065L39.874,39.249C39.874,41.027 39.174,42.369 38.08,43.115L39.994,46.835L38.062,46.835L36.508,43.749ZM35.14,42.243L35.67,42.243C37.328,42.243 38.08,41.007 38.08,39.249L38.08,39.101C38.08,37.267 37.328,36.161 35.67,36.161L35.14,36.161L35.14,42.243Z" style="fill:white;"/>
                                <path id="Fill-23" d="M48.983,45.765L50.043,44.423C50.505,44.875 51.051,45.311 51.889,45.311C52.861,45.311 53.495,44.693 53.495,43.787L53.495,43.641C53.495,42.915 53.169,42.389 52.315,41.625L51.189,40.609C50.127,39.647 49.495,38.775 49.495,37.359L49.495,37.231C49.495,35.523 50.691,34.345 52.419,34.345C53.513,34.345 54.161,34.617 54.845,35.125L53.991,36.577C53.579,36.269 53.153,36.015 52.469,36.015C51.785,36.015 51.221,36.487 51.221,37.195L51.221,37.285C51.221,38.067 51.597,38.539 52.383,39.229L53.545,40.265C54.675,41.281 55.271,42.225 55.271,43.569L55.271,43.751C55.271,45.601 54.075,47.001 51.941,47.001C50.573,47.001 49.667,46.511 48.983,45.765" style="fill:white;"/>
                                <path id="Fill-24" d="M76.428,40.881L76.428,40.445C76.428,36.831 78.018,34.345 80.804,34.345C82.066,34.345 82.99,34.745 83.724,35.489L82.718,36.885C82.22,36.359 81.656,36.069 80.854,36.069C79.266,36.069 78.256,37.775 78.256,40.499L78.256,40.827C78.256,43.587 79.076,45.329 80.768,45.329C81.81,45.329 82.546,44.531 82.546,42.859L80.616,42.859L80.616,41.189L84.39,41.189L84.39,42.423C84.39,45.203 83.142,47.001 80.768,47.001C78.052,47.001 76.428,44.657 76.428,40.881" style="fill:white;"/>
                                <path id="Fill-25" d="M97.344,43.749C97.072,43.805 96.8,43.823 96.526,43.823L95.978,43.823L95.978,46.835L94.184,46.835L94.184,34.491L96.526,34.491C99.018,34.491 100.712,36.177 100.712,39.065L100.712,39.249C100.712,41.027 100.01,42.369 98.916,43.115L100.83,46.835L98.9,46.835L97.344,43.749ZM95.978,42.243L96.506,42.243C98.166,42.243 98.916,41.007 98.916,39.249L98.916,39.101C98.916,37.267 98.166,36.161 96.506,36.161L95.978,36.161L95.978,42.243Z" style="fill:white;"/>
                                <path id="Fill-26" d="M110.231,40.826L110.231,40.5C110.231,36.576 111.939,34.344 114.435,34.344C116.929,34.344 118.637,36.576 118.637,40.5L118.637,40.826C118.637,44.748 116.929,47 114.435,47C111.939,47 110.231,44.748 110.231,40.826M116.791,40.772L116.791,40.554C116.791,37.594 115.869,36.05 114.435,36.05C112.999,36.05 112.059,37.594 112.059,40.554L112.059,40.772C112.059,43.732 112.999,45.274 114.435,45.274C115.869,45.274 116.791,43.732 116.791,40.772" style="fill:white;"/>
                                <path id="Fill-27" d="M128.551,43.205L128.551,34.489L130.343,34.489L130.343,43.169C130.343,44.511 130.925,45.257 131.985,45.257C133.043,45.257 133.625,44.511 133.625,43.169L133.625,34.489L135.419,34.489L135.419,43.205C135.419,45.747 134.001,46.999 131.985,46.999C129.969,46.999 128.551,45.747 128.551,43.205" style="fill:white;"/>
                                <path id="Fill-28" d="M145.758,34.489L147.98,34.489C150.492,34.489 152.2,36.177 152.2,39.065L152.2,39.247C152.2,42.115 150.526,43.875 147.98,43.875L147.552,43.875L147.552,46.835L145.758,46.835L145.758,34.489ZM147.552,42.205L147.964,42.205C149.636,42.205 150.406,41.007 150.406,39.247L150.406,39.101C150.406,37.267 149.636,36.159 147.964,36.159L147.552,36.159L147.552,42.205Z" style="fill:white;"/>
                            </g>
                        </g>
                    </g>
                </g>
            </g>
        </g>
    </g>
</svg>
