<?xml version="1.0" encoding="UTF-8" standalone="no"?>
<!DOCTYPE svg PUBLIC "-//W3C//DTD SVG 1.1//EN" "http://www.w3.org/Graphics/SVG/1.1/DTD/svg11.dtd">
<svg width="100%" height="100%" viewBox="0 0 328 50" version="1.1" xmlns="http://www.w3.org/2000/svg" xmlns:xlink="http://www.w3.org/1999/xlink" xml:space="preserve" xmlns:serif="http://www.serif.com/" style="fill-rule:evenodd;clip-rule:evenodd;stroke-linejoin:round;stroke-miterlimit:2;">
    <g id="Artboard1" transform="matrix(1,0,0,0.578975,0,0)">
        <rect x="0" y="0" width="328" height="86" style="fill:none;"/>
        <g transform="matrix(1,0,0,1.72719,0,-53.4241)">
            <path d="M34.693,31.202L38.078,31.202L38.078,51.946L50.906,51.946L50.906,54.891L34.693,54.891L34.693,31.202Z" style="fill:white;fill-rule:nonzero;"/>
        </g>
        <g transform="matrix(1,0,0,1.72719,0,-53.4241)">
            <path d="M65.225,55.161C62.833,55.161 60.678,54.642 58.76,53.605C56.842,52.544 55.33,51.089 54.225,49.239C53.142,47.389 52.6,45.325 52.6,43.046C52.6,40.768 53.142,38.703 54.225,36.853C55.33,35.003 56.842,33.56 58.76,32.522C60.678,31.461 62.833,30.931 65.225,30.931C67.594,30.931 69.738,31.461 71.656,32.522C73.574,33.56 75.074,35.003 76.157,36.853C77.241,38.681 77.782,40.745 77.782,43.046C77.782,45.347 77.241,47.423 76.157,49.273C75.074,51.1 73.574,52.544 71.656,53.605C69.738,54.642 67.594,55.161 65.225,55.161ZM65.225,52.15C66.962,52.15 68.519,51.755 69.896,50.965C71.295,50.175 72.389,49.093 73.179,47.716C73.991,46.318 74.397,44.761 74.397,43.046C74.397,41.332 73.991,39.786 73.179,38.41C72.389,37.011 71.295,35.917 69.896,35.127C68.519,34.338 66.962,33.943 65.225,33.943C63.487,33.943 61.908,34.338 60.486,35.127C59.087,35.917 57.982,37.011 57.169,38.41C56.38,39.786 55.985,41.332 55.985,43.046C55.985,44.761 56.38,46.318 57.169,47.716C57.982,49.093 59.087,50.175 60.486,50.965C61.908,51.755 63.487,52.15 65.225,52.15Z" style="fill:white;fill-rule:nonzero;"/>
        </g>
        <g transform="matrix(1,0,0,1.72719,0,-53.4241)">
            <path d="M103.5,31.202L103.5,54.891L100.725,54.891L86.509,37.226L86.509,54.891L83.125,54.891L83.125,31.202L85.9,31.202L100.116,48.867L100.116,31.202L103.5,31.202Z" style="fill:white;fill-rule:nonzero;"/>
        </g>
        <g transform="matrix(1,0,0,1.72719,0,-53.4241)">
            <path d="M110.761,31.202L120.746,31.202C123.251,31.202 125.474,31.698 127.414,32.691C129.355,33.684 130.855,35.082 131.916,36.887C132.999,38.67 133.54,40.722 133.54,43.046C133.54,45.37 132.999,47.434 131.916,49.239C130.855,51.021 129.355,52.409 127.414,53.402C125.474,54.394 123.251,54.891 120.746,54.891L110.761,54.891L110.761,31.202ZM120.543,51.946C122.461,51.946 124.142,51.574 125.586,50.83C127.053,50.085 128.181,49.047 128.971,47.716C129.761,46.363 130.156,44.806 130.156,43.046C130.156,41.286 129.761,39.741 128.971,38.41C128.181,37.056 127.053,36.007 125.586,35.263C124.142,34.518 122.461,34.146 120.543,34.146L114.146,34.146L114.146,51.946L120.543,51.946Z" style="fill:white;fill-rule:nonzero;"/>
        </g>
        <g transform="matrix(1,0,0,1.72719,0,-53.4241)">
            <path d="M149.59,55.161C147.198,55.161 145.043,54.642 143.125,53.605C141.207,52.544 139.695,51.089 138.589,49.239C137.506,47.389 136.965,45.325 136.965,43.046C136.965,40.768 137.506,38.703 138.589,36.853C139.695,35.003 141.207,33.56 143.125,32.522C145.043,31.461 147.198,30.931 149.59,30.931C151.959,30.931 154.103,31.461 156.021,32.522C157.939,33.56 159.439,35.003 160.522,36.853C161.605,38.681 162.147,40.745 162.147,43.046C162.147,45.347 161.605,47.423 160.522,49.273C159.439,51.1 157.939,52.544 156.021,53.605C154.103,54.642 151.959,55.161 149.59,55.161ZM149.59,52.15C151.327,52.15 152.884,51.755 154.261,50.965C155.66,50.175 156.754,49.093 157.544,47.716C158.356,46.318 158.762,44.761 158.762,43.046C158.762,41.332 158.356,39.786 157.544,38.41C156.754,37.011 155.66,35.917 154.261,35.127C152.884,34.338 151.327,33.943 149.59,33.943C147.852,33.943 146.273,34.338 144.851,35.127C143.452,35.917 142.346,37.011 141.534,38.41C140.744,39.786 140.349,41.332 140.349,43.046C140.349,44.761 140.744,46.318 141.534,47.716C142.346,49.093 143.452,50.175 144.851,50.965C146.273,51.755 147.852,52.15 149.59,52.15Z" style="fill:white;fill-rule:nonzero;"/>
        </g>
        <g transform="matrix(1,0,0,1.72719,0,-53.4241)">
            <path d="M187.865,31.202L187.865,54.891L185.09,54.891L170.874,37.226L170.874,54.891L167.489,54.891L167.489,31.202L170.265,31.202L184.481,48.867L184.481,31.202L187.865,31.202Z" style="fill:white;fill-rule:nonzero;"/>
        </g>
        <g transform="matrix(1,0,0,1.72719,0,-53.4241)">
            <path d="M213.625,55.161C211.233,55.161 209.078,54.642 207.16,53.605C205.242,52.544 203.73,51.089 202.625,49.239C201.542,47.389 201,45.325 201,43.046C201,40.768 201.542,38.703 202.625,36.853C203.73,35.003 205.242,33.56 207.16,32.522C209.078,31.461 211.233,30.931 213.625,30.931C215.994,30.931 218.138,31.461 220.056,32.522C221.974,33.56 223.474,35.003 224.558,36.853C225.641,38.681 226.182,40.745 226.182,43.046C226.182,45.347 225.641,47.423 224.558,49.273C223.474,51.1 221.974,52.544 220.056,53.605C218.138,54.642 215.994,55.161 213.625,55.161ZM213.625,52.15C215.363,52.15 216.919,51.755 218.296,50.965C219.695,50.175 220.789,49.093 221.579,47.716C222.391,46.318 222.798,44.761 222.798,43.046C222.798,41.332 222.391,39.786 221.579,38.41C220.789,37.011 219.695,35.917 218.296,35.127C216.919,34.338 215.363,33.943 213.625,33.943C211.888,33.943 210.308,34.338 208.886,35.127C207.487,35.917 206.382,37.011 205.569,38.41C204.78,39.786 204.385,41.332 204.385,43.046C204.385,44.761 204.78,46.318 205.569,47.716C206.382,49.093 207.487,50.175 208.886,50.965C210.308,51.755 211.888,52.15 213.625,52.15Z" style="fill:white;fill-rule:nonzero;"/>
        </g>
        <g transform="matrix(1,0,0,1.72719,0,-53.4241)">
            <path d="M232.786,34.146L232.786,42.403L244.666,42.403L244.666,45.314L232.786,45.314L232.786,54.891L229.401,54.891L229.401,31.202L246.121,31.202L246.121,34.146L232.786,34.146Z" style="fill:white;fill-rule:nonzero;"/>
        </g>
        <g transform="matrix(1,0,0,1.72719,0,-53.4241)">
            <path d="M254.44,34.146L254.44,42.403L266.32,42.403L266.32,45.314L254.44,45.314L254.44,54.891L251.055,54.891L251.055,31.202L267.776,31.202L267.776,34.146L254.44,34.146Z" style="fill:white;fill-rule:nonzero;"/>
        </g>
        <g transform="matrix(1,0,0,1.72719,0,-53.4241)">
            <rect x="272.709" y="31.202" width="3.385" height="23.689" style="fill:white;fill-rule:nonzero;"/>
        </g>
        <g transform="matrix(1,0,0,1.72719,0,-53.4241)">
            <path d="M293.951,55.161C291.581,55.161 289.438,54.642 287.52,53.605C285.624,52.544 284.135,51.1 283.052,49.273C281.969,47.423 281.427,45.347 281.427,43.046C281.427,40.745 281.969,38.681 283.052,36.853C284.135,35.003 285.636,33.56 287.554,32.522C289.472,31.461 291.615,30.931 293.985,30.931C295.835,30.931 297.527,31.247 299.062,31.879C300.596,32.488 301.905,33.402 302.988,34.62L300.788,36.752C299.005,34.879 296.783,33.943 294.12,33.943C292.36,33.943 290.769,34.338 289.348,35.127C287.926,35.917 286.809,37.011 285.997,38.41C285.207,39.786 284.812,41.332 284.812,43.046C284.812,44.761 285.207,46.318 285.997,47.716C286.809,49.093 287.926,50.175 289.348,50.965C290.769,51.755 292.36,52.15 294.12,52.15C296.76,52.15 298.983,51.202 300.788,49.307L302.988,51.439C301.905,52.657 300.585,53.582 299.028,54.214C297.493,54.846 295.801,55.161 293.951,55.161Z" style="fill:white;fill-rule:nonzero;"/>
        </g>
        <g transform="matrix(1,0,0,1.72719,0,-53.4241)">
            <path d="M325.18,51.946L325.18,54.891L307.985,54.891L307.985,31.202L324.706,31.202L324.706,34.146L311.37,34.146L311.37,41.422L323.25,41.422L323.25,44.298L311.37,44.298L311.37,51.946L325.18,51.946Z" style="fill:white;fill-rule:nonzero;"/>
        </g>
        <g transform="matrix(1,0,0,1.72719,0,-53.4241)">
            <path d="M5.661,32.714L2.203,32.714L2.203,31.482L10.545,31.482L10.545,32.714L7.087,32.714L7.087,41.394L5.661,41.394L5.661,32.714Z" style="fill:white;fill-rule:nonzero;"/>
        </g>
        <g transform="matrix(1,0,0,1.72719,0,-53.4241)">
            <path d="M20.644,31.482L20.644,41.394L19.203,41.394L19.203,36.976L13.411,36.976L13.411,41.394L11.971,41.394L11.971,31.482L13.411,31.482L13.411,35.744L19.203,35.744L19.203,31.482L20.644,31.482Z" style="fill:white;fill-rule:nonzero;"/>
        </g>
        <g transform="matrix(1,0,0,1.72719,0,-53.4241)">
            <path d="M30.839,40.162L30.839,41.394L23.519,41.394L23.519,31.482L30.637,31.482L30.637,32.714L24.96,32.714L24.96,35.758L30.017,35.758L30.017,36.962L24.96,36.962L24.96,40.162L30.839,40.162Z" style="fill:white;fill-rule:nonzero;"/>
        </g>
        <g transform="matrix(1,0,0,1.72719,0,-53.4241)">
            <path d="M59.964,71.613C58.597,71.22 57.601,70.738 56.976,70.169C56.356,69.593 56.046,68.885 56.046,68.044C56.046,67.092 56.425,66.306 57.183,65.686C57.947,65.061 58.937,64.748 60.155,64.748C60.985,64.748 61.724,64.909 62.371,65.23C63.024,65.551 63.528,65.993 63.882,66.558C64.242,67.122 64.421,67.739 64.421,68.409L62.819,68.409C62.819,67.678 62.587,67.106 62.122,66.69C61.657,66.27 61.002,66.06 60.155,66.06C59.369,66.06 58.755,66.234 58.312,66.583C57.875,66.926 57.656,67.404 57.656,68.019C57.656,68.511 57.864,68.929 58.279,69.272C58.699,69.61 59.411,69.919 60.412,70.202C61.419,70.484 62.205,70.797 62.77,71.14C63.34,71.477 63.76,71.873 64.031,72.327C64.308,72.78 64.446,73.315 64.446,73.929C64.446,74.908 64.064,75.694 63.301,76.286C62.537,76.873 61.516,77.166 60.238,77.166C59.408,77.166 58.633,77.008 57.914,76.693C57.194,76.372 56.638,75.935 56.245,75.381C55.858,74.828 55.664,74.2 55.664,73.497L57.266,73.497C57.266,74.228 57.535,74.806 58.071,75.232C58.614,75.653 59.336,75.863 60.238,75.863C61.079,75.863 61.724,75.691 62.172,75.348C62.62,75.005 62.844,74.537 62.844,73.945C62.844,73.353 62.637,72.897 62.222,72.576C61.807,72.249 61.054,71.928 59.964,71.613ZM72.056,76.112C71.458,76.815 70.581,77.166 69.424,77.166C68.467,77.166 67.737,76.889 67.233,76.336C66.735,75.777 66.483,74.953 66.478,73.862L66.478,68.019L68.013,68.019L68.013,73.821C68.013,75.182 68.567,75.863 69.674,75.863C70.847,75.863 71.627,75.426 72.014,74.551L72.014,68.019L73.55,68.019L73.55,77L72.089,77L72.056,76.112ZM83.733,72.609C83.733,73.976 83.42,75.077 82.795,75.913C82.169,76.748 81.323,77.166 80.255,77.166C79.165,77.166 78.307,76.82 77.681,76.128L77.681,80.453L76.146,80.453L76.146,68.019L77.549,68.019L77.623,69.015C78.249,68.24 79.117,67.853 80.23,67.853C81.309,67.853 82.161,68.259 82.786,69.073C83.417,69.886 83.733,71.018 83.733,72.468L83.733,72.609ZM82.197,72.435C82.197,71.422 81.981,70.622 81.55,70.036C81.118,69.449 80.526,69.156 79.773,69.156C78.844,69.156 78.146,69.568 77.681,70.393L77.681,74.684C78.141,75.503 78.844,75.913 79.79,75.913C80.526,75.913 81.11,75.622 81.541,75.041C81.978,74.454 82.197,73.586 82.197,72.435ZM93.534,72.609C93.534,73.976 93.221,75.077 92.596,75.913C91.97,76.748 91.124,77.166 90.056,77.166C88.965,77.166 88.108,76.82 87.482,76.128L87.482,80.453L85.947,80.453L85.947,68.019L87.35,68.019L87.424,69.015C88.05,68.24 88.918,67.853 90.031,67.853C91.11,67.853 91.962,68.259 92.587,69.073C93.218,69.886 93.534,71.018 93.534,72.468L93.534,72.609ZM91.998,72.435C91.998,71.422 91.782,70.622 91.35,70.036C90.919,69.449 90.327,69.156 89.574,69.156C88.644,69.156 87.947,69.568 87.482,70.393L87.482,74.684C87.942,75.503 88.644,75.913 89.591,75.913C90.327,75.913 90.911,75.622 91.342,75.041C91.779,74.454 91.998,73.586 91.998,72.435ZM95.341,72.426C95.341,71.546 95.512,70.755 95.855,70.052C96.204,69.349 96.686,68.807 97.3,68.425C97.92,68.044 98.625,67.853 99.417,67.853C100.639,67.853 101.627,68.276 102.38,69.123C103.138,69.969 103.517,71.095 103.517,72.501L103.517,72.609C103.517,73.483 103.348,74.269 103.011,74.966C102.679,75.658 102.2,76.198 101.575,76.585C100.955,76.972 100.241,77.166 99.433,77.166C98.216,77.166 97.228,76.743 96.47,75.896C95.717,75.049 95.341,73.929 95.341,72.534L95.341,72.426ZM96.885,72.609C96.885,73.605 97.114,74.405 97.574,75.008C98.039,75.611 98.658,75.913 99.433,75.913C100.213,75.913 100.833,75.608 101.292,75C101.752,74.385 101.981,73.528 101.981,72.426C101.981,71.441 101.746,70.644 101.276,70.036C100.811,69.421 100.191,69.114 99.417,69.114C98.658,69.114 98.047,69.416 97.582,70.019C97.117,70.622 96.885,71.486 96.885,72.609ZM110.039,69.397C109.807,69.358 109.555,69.338 109.284,69.338C108.277,69.338 107.593,69.767 107.233,70.625L107.233,77L105.698,77L105.698,68.019L107.192,68.019L107.217,69.056C107.72,68.254 108.434,67.853 109.358,67.853C109.657,67.853 109.884,67.891 110.039,67.969L110.039,69.397ZM114.212,65.844L114.212,68.019L115.889,68.019L115.889,69.206L114.212,69.206L114.212,74.775C114.212,75.135 114.287,75.406 114.436,75.589C114.586,75.766 114.84,75.855 115.2,75.855C115.377,75.855 115.62,75.821 115.93,75.755L115.93,77C115.526,77.111 115.134,77.166 114.752,77.166C114.065,77.166 113.548,76.959 113.199,76.544C112.851,76.128 112.676,75.539 112.676,74.775L112.676,69.206L111.041,69.206L111.041,68.019L112.676,68.019L112.676,65.844L114.212,65.844ZM119.614,77L118.078,77L118.078,68.019L119.614,68.019L119.614,77ZM117.953,65.636C117.953,65.387 118.028,65.177 118.178,65.005C118.333,64.834 118.559,64.748 118.858,64.748C119.157,64.748 119.384,64.834 119.539,65.005C119.694,65.177 119.771,65.387 119.771,65.636C119.771,65.885 119.694,66.093 119.539,66.259C119.384,66.425 119.157,66.508 118.858,66.508C118.559,66.508 118.333,66.425 118.178,66.259C118.028,66.093 117.953,65.885 117.953,65.636ZM123.787,68.019L123.836,69.147C124.523,68.284 125.419,67.853 126.526,67.853C128.424,67.853 129.381,68.923 129.398,71.065L129.398,77L127.862,77L127.862,71.057C127.857,70.409 127.707,69.931 127.414,69.621C127.126,69.311 126.675,69.156 126.061,69.156C125.563,69.156 125.126,69.289 124.749,69.554C124.373,69.82 124.08,70.169 123.87,70.6L123.87,77L122.334,77L122.334,68.019L123.787,68.019ZM131.604,72.435C131.604,71.034 131.927,69.922 132.575,69.098C133.222,68.268 134.08,67.853 135.148,67.853C136.244,67.853 137.099,68.24 137.713,69.015L137.788,68.019L139.191,68.019L139.191,76.784C139.191,77.946 138.845,78.862 138.153,79.532C137.467,80.201 136.543,80.536 135.38,80.536C134.733,80.536 134.099,80.398 133.48,80.121C132.86,79.844 132.387,79.465 132.06,78.984L132.857,78.063C133.516,78.876 134.321,79.283 135.273,79.283C136.02,79.283 136.601,79.072 137.016,78.652C137.436,78.231 137.647,77.639 137.647,76.876L137.647,76.104C137.032,76.812 136.194,77.166 135.131,77.166C134.08,77.166 133.228,76.743 132.575,75.896C131.927,75.049 131.604,73.896 131.604,72.435ZM133.148,72.609C133.148,73.622 133.355,74.419 133.77,75C134.185,75.575 134.766,75.863 135.513,75.863C136.482,75.863 137.193,75.423 137.647,74.543L137.647,70.442C137.176,69.585 136.471,69.156 135.53,69.156C134.783,69.156 134.199,69.446 133.778,70.027C133.358,70.608 133.148,71.469 133.148,72.609ZM146.482,77L146.482,64.914L150.433,64.914C151.745,64.914 152.73,65.185 153.388,65.728C154.053,66.27 154.385,67.072 154.385,68.135C154.385,68.699 154.224,69.2 153.903,69.637C153.582,70.069 153.145,70.404 152.592,70.642C153.245,70.824 153.759,71.173 154.136,71.688C154.517,72.197 154.708,72.805 154.708,73.514C154.708,74.598 154.357,75.451 153.654,76.07C152.951,76.69 151.958,77 150.674,77L146.482,77ZM148.076,71.347L148.076,75.697L150.707,75.697C151.449,75.697 152.033,75.506 152.459,75.124C152.89,74.737 153.106,74.205 153.106,73.53C153.106,72.075 152.315,71.347 150.732,71.347L148.076,71.347ZM148.076,70.069L150.483,70.069C151.18,70.069 151.737,69.894 152.152,69.546C152.572,69.197 152.783,68.724 152.783,68.126C152.783,67.462 152.589,66.981 152.201,66.682C151.814,66.378 151.225,66.226 150.433,66.226L148.076,66.226L148.076,70.069ZM162.633,76.112C162.036,76.815 161.158,77.166 160.002,77.166C159.045,77.166 158.314,76.889 157.81,76.336C157.312,75.777 157.061,74.953 157.055,73.862L157.055,68.019L158.591,68.019L158.591,73.821C158.591,75.182 159.144,75.863 160.251,75.863C161.424,75.863 162.204,75.426 162.592,74.551L162.592,68.019L164.127,68.019L164.127,77L162.666,77L162.633,76.112ZM171.953,74.618C171.953,74.203 171.795,73.882 171.48,73.655C171.17,73.422 170.625,73.223 169.844,73.057C169.07,72.891 168.453,72.692 167.993,72.46C167.539,72.227 167.202,71.95 166.981,71.629C166.765,71.308 166.657,70.927 166.657,70.484C166.657,69.748 166.967,69.125 167.586,68.616C168.212,68.107 169.009,67.853 169.977,67.853C170.995,67.853 171.82,68.115 172.451,68.641C173.087,69.167 173.405,69.839 173.405,70.658L171.861,70.658C171.861,70.238 171.682,69.875 171.322,69.571C170.968,69.266 170.519,69.114 169.977,69.114C169.418,69.114 168.981,69.236 168.666,69.48C168.35,69.723 168.192,70.041 168.192,70.434C168.192,70.805 168.339,71.084 168.632,71.272C168.926,71.461 169.454,71.641 170.218,71.812C170.987,71.984 171.61,72.188 172.086,72.426C172.561,72.664 172.913,72.952 173.14,73.29C173.372,73.622 173.488,74.028 173.488,74.51C173.488,75.312 173.167,75.957 172.525,76.444C171.884,76.925 171.051,77.166 170.027,77.166C169.308,77.166 168.671,77.039 168.118,76.784C167.564,76.53 167.13,76.176 166.815,75.722C166.505,75.262 166.35,74.767 166.35,74.236L167.885,74.236C167.913,74.751 168.118,75.16 168.5,75.464C168.887,75.763 169.396,75.913 170.027,75.913C170.608,75.913 171.073,75.796 171.421,75.564C171.776,75.326 171.953,75.011 171.953,74.618ZM177.412,77L175.877,77L175.877,68.019L177.412,68.019L177.412,77ZM175.752,65.636C175.752,65.387 175.827,65.177 175.976,65.005C176.131,64.834 176.358,64.748 176.657,64.748C176.956,64.748 177.183,64.834 177.338,65.005C177.493,65.177 177.57,65.387 177.57,65.636C177.57,65.885 177.493,66.093 177.338,66.259C177.183,66.425 176.956,66.508 176.657,66.508C176.358,66.508 176.131,66.425 175.976,66.259C175.827,66.093 175.752,65.885 175.752,65.636ZM181.585,68.019L181.635,69.147C182.321,68.284 183.218,67.853 184.325,67.853C186.223,67.853 187.18,68.923 187.197,71.065L187.197,77L185.661,77L185.661,71.057C185.655,70.409 185.506,69.931 185.213,69.621C184.925,69.311 184.474,69.156 183.86,69.156C183.362,69.156 182.924,69.289 182.548,69.554C182.172,69.82 181.879,70.169 181.668,70.6L181.668,77L180.133,77L180.133,68.019L181.585,68.019ZM193.495,77.166C192.277,77.166 191.287,76.768 190.523,75.971C189.759,75.168 189.377,74.098 189.377,72.758L189.377,72.476C189.377,71.585 189.546,70.791 189.884,70.094C190.227,69.391 190.703,68.843 191.311,68.45C191.926,68.052 192.59,67.853 193.304,67.853C194.471,67.853 195.379,68.237 196.026,69.006C196.674,69.776 196.997,70.877 196.997,72.31L196.997,72.949L190.913,72.949C190.935,73.835 191.192,74.551 191.685,75.099C192.183,75.641 192.814,75.913 193.578,75.913C194.12,75.913 194.579,75.802 194.955,75.581C195.332,75.359 195.661,75.066 195.943,74.701L196.881,75.431C196.129,76.588 195,77.166 193.495,77.166ZM193.304,69.114C192.684,69.114 192.164,69.341 191.743,69.795C191.323,70.243 191.062,70.874 190.963,71.688L195.462,71.688L195.462,71.571C195.418,70.791 195.207,70.188 194.831,69.762C194.455,69.33 193.946,69.114 193.304,69.114ZM204.267,74.618C204.267,74.203 204.109,73.882 203.794,73.655C203.484,73.422 202.939,73.223 202.158,73.057C201.384,72.891 200.766,72.692 200.307,72.46C199.853,72.227 199.516,71.95 199.294,71.629C199.079,71.308 198.971,70.927 198.971,70.484C198.971,69.748 199.281,69.125 199.9,68.616C200.526,68.107 201.323,67.853 202.291,67.853C203.309,67.853 204.134,68.115 204.765,68.641C205.401,69.167 205.719,69.839 205.719,70.658L204.175,70.658C204.175,70.238 203.995,69.875 203.636,69.571C203.282,69.266 202.833,69.114 202.291,69.114C201.732,69.114 201.295,69.236 200.98,69.48C200.664,69.723 200.506,70.041 200.506,70.434C200.506,70.805 200.653,71.084 200.946,71.272C201.24,71.461 201.768,71.641 202.532,71.812C203.301,71.984 203.924,72.188 204.399,72.426C204.875,72.664 205.227,72.952 205.454,73.29C205.686,73.622 205.802,74.028 205.802,74.51C205.802,75.312 205.481,75.957 204.839,76.444C204.197,76.925 203.365,77.166 202.341,77.166C201.621,77.166 200.985,77.039 200.432,76.784C199.878,76.53 199.444,76.176 199.128,75.722C198.819,75.262 198.664,74.767 198.664,74.236L200.199,74.236C200.227,74.751 200.432,75.16 200.814,75.464C201.201,75.763 201.71,75.913 202.341,75.913C202.922,75.913 203.387,75.796 203.735,75.564C204.09,75.326 204.267,75.011 204.267,74.618ZM213.287,74.618C213.287,74.203 213.13,73.882 212.814,73.655C212.504,73.422 211.959,73.223 211.179,73.057C210.404,72.891 209.787,72.692 209.328,72.46C208.874,72.227 208.536,71.95 208.315,71.629C208.099,71.308 207.991,70.927 207.991,70.484C207.991,69.748 208.301,69.125 208.921,68.616C209.546,68.107 210.343,67.853 211.312,67.853C212.33,67.853 213.154,68.115 213.785,68.641C214.422,69.167 214.74,69.839 214.74,70.658L213.196,70.658C213.196,70.238 213.016,69.875 212.656,69.571C212.302,69.266 211.854,69.114 211.312,69.114C210.753,69.114 210.316,69.236 210,69.48C209.685,69.723 209.527,70.041 209.527,70.434C209.527,70.805 209.674,71.084 209.967,71.272C210.26,71.461 210.789,71.641 211.552,71.812C212.322,71.984 212.944,72.188 213.42,72.426C213.896,72.664 214.247,72.952 214.474,73.29C214.707,73.622 214.823,74.028 214.823,74.51C214.823,75.312 214.502,75.957 213.86,76.444C213.218,76.925 212.385,77.166 211.361,77.166C210.642,77.166 210.006,77.039 209.452,76.784C208.899,76.53 208.465,76.176 208.149,75.722C207.839,75.262 207.684,74.767 207.684,74.236L209.22,74.236C209.248,74.751 209.452,75.16 209.834,75.464C210.222,75.763 210.731,75.913 211.361,75.913C211.943,75.913 212.407,75.796 212.756,75.564C213.11,75.326 213.287,75.011 213.287,74.618ZM220.805,77.166C219.588,77.166 218.597,76.768 217.834,75.971C217.07,75.168 216.688,74.098 216.688,72.758L216.688,72.476C216.688,71.585 216.857,70.791 217.195,70.094C217.538,69.391 218.014,68.843 218.622,68.45C219.237,68.052 219.901,67.853 220.615,67.853C221.782,67.853 222.69,68.237 223.337,69.006C223.985,69.776 224.308,70.877 224.308,72.31L224.308,72.949L218.224,72.949C218.246,73.835 218.503,74.551 218.996,75.099C219.494,75.641 220.125,75.913 220.888,75.913C221.431,75.913 221.89,75.802 222.266,75.581C222.643,75.359 222.972,75.066 223.254,74.701L224.192,75.431C223.44,76.588 222.311,77.166 220.805,77.166ZM220.615,69.114C219.995,69.114 219.475,69.341 219.054,69.795C218.633,70.243 218.373,70.874 218.274,71.688L222.773,71.688L222.773,71.571C222.728,70.791 222.518,70.188 222.142,69.762C221.766,69.33 221.256,69.114 220.615,69.114ZM231.578,74.618C231.578,74.203 231.42,73.882 231.104,73.655C230.795,73.422 230.249,73.223 229.469,73.057C228.694,72.891 228.077,72.692 227.618,72.46C227.164,72.227 226.827,71.95 226.605,71.629C226.39,71.308 226.282,70.927 226.282,70.484C226.282,69.748 226.592,69.125 227.211,68.616C227.837,68.107 228.634,67.853 229.602,67.853C230.62,67.853 231.445,68.115 232.076,68.641C232.712,69.167 233.03,69.839 233.03,70.658L231.486,70.658C231.486,70.238 231.306,69.875 230.947,69.571C230.593,69.266 230.144,69.114 229.602,69.114C229.043,69.114 228.606,69.236 228.29,69.48C227.975,69.723 227.817,70.041 227.817,70.434C227.817,70.805 227.964,71.084 228.257,71.272C228.551,71.461 229.079,71.641 229.843,71.812C230.612,71.984 231.234,72.188 231.71,72.426C232.186,72.664 232.538,72.952 232.765,73.29C232.997,73.622 233.113,74.028 233.113,74.51C233.113,75.312 232.792,75.957 232.15,76.444C231.508,76.925 230.676,77.166 229.652,77.166C228.932,77.166 228.296,77.039 227.743,76.784C227.189,76.53 226.755,76.176 226.439,75.722C226.129,75.262 225.975,74.767 225.975,74.236L227.51,74.236C227.538,74.751 227.743,75.16 228.124,75.464C228.512,75.763 229.021,75.913 229.652,75.913C230.233,75.913 230.698,75.796 231.046,75.564C231.4,75.326 231.578,75.011 231.578,74.618ZM243.642,71.613C242.275,71.22 241.279,70.738 240.654,70.169C240.034,69.593 239.724,68.885 239.724,68.044C239.724,67.092 240.103,66.306 240.861,65.686C241.625,65.061 242.616,64.748 243.833,64.748C244.663,64.748 245.402,64.909 246.049,65.23C246.702,65.551 247.206,65.993 247.56,66.558C247.92,67.122 248.1,67.739 248.1,68.409L246.498,68.409C246.498,67.678 246.265,67.106 245.8,66.69C245.336,66.27 244.68,66.06 243.833,66.06C243.047,66.06 242.433,66.234 241.99,66.583C241.553,66.926 241.335,67.404 241.335,68.019C241.335,68.511 241.542,68.929 241.957,69.272C242.378,69.61 243.089,69.919 244.09,70.202C245.098,70.484 245.883,70.797 246.448,71.14C247.018,71.477 247.438,71.873 247.71,72.327C247.986,72.78 248.125,73.315 248.125,73.929C248.125,74.908 247.743,75.694 246.979,76.286C246.215,76.873 245.194,77.166 243.916,77.166C243.086,77.166 242.311,77.008 241.592,76.693C240.873,76.372 240.316,75.935 239.923,75.381C239.536,74.828 239.342,74.2 239.342,73.497L240.944,73.497C240.944,74.228 241.213,74.806 241.75,75.232C242.292,75.653 243.014,75.863 243.916,75.863C244.757,75.863 245.402,75.691 245.85,75.348C246.298,75.005 246.523,74.537 246.523,73.945C246.523,73.353 246.315,72.897 245.9,72.576C245.485,72.249 244.732,71.928 243.642,71.613ZM251.858,77L250.322,77L250.322,68.019L251.858,68.019L251.858,77ZM250.198,65.636C250.198,65.387 250.272,65.177 250.422,65.005C250.577,64.834 250.803,64.748 251.102,64.748C251.401,64.748 251.628,64.834 251.783,65.005C251.938,65.177 252.015,65.387 252.015,65.636C252.015,65.885 251.938,66.093 251.783,66.259C251.628,66.425 251.401,66.508 251.102,66.508C250.803,66.508 250.577,66.425 250.422,66.259C250.272,66.093 250.198,65.885 250.198,65.636ZM256.031,68.019L256.08,69.147C256.767,68.284 257.663,67.853 258.77,67.853C260.668,67.853 261.625,68.923 261.642,71.065L261.642,77L260.106,77L260.106,71.057C260.101,70.409 259.951,69.931 259.658,69.621C259.37,69.311 258.919,69.156 258.305,69.156C257.807,69.156 257.37,69.289 256.994,69.554C256.617,69.82 256.324,70.169 256.114,70.6L256.114,77L254.578,77L254.578,68.019L256.031,68.019ZM267.815,75.913C268.363,75.913 268.842,75.747 269.251,75.415C269.661,75.083 269.888,74.668 269.932,74.169L271.385,74.169C271.357,74.684 271.18,75.174 270.854,75.639C270.527,76.104 270.09,76.474 269.542,76.751C269,77.028 268.424,77.166 267.815,77.166C266.592,77.166 265.618,76.759 264.894,75.946C264.174,75.127 263.814,74.009 263.814,72.592L263.814,72.335C263.814,71.461 263.975,70.683 264.296,70.002C264.617,69.322 265.076,68.793 265.674,68.417C266.277,68.041 266.988,67.853 267.807,67.853C268.814,67.853 269.65,68.154 270.314,68.757C270.984,69.361 271.34,70.144 271.385,71.106L269.932,71.106C269.888,70.525 269.667,70.05 269.268,69.679C268.875,69.302 268.388,69.114 267.807,69.114C267.027,69.114 266.421,69.397 265.989,69.961C265.563,70.52 265.35,71.331 265.35,72.393L265.35,72.684C265.35,73.718 265.563,74.515 265.989,75.074C266.415,75.633 267.024,75.913 267.815,75.913ZM277.093,77.166C275.876,77.166 274.885,76.768 274.122,75.971C273.358,75.168 272.976,74.098 272.976,72.758L272.976,72.476C272.976,71.585 273.145,70.791 273.483,70.094C273.826,69.391 274.302,68.843 274.91,68.45C275.525,68.052 276.189,67.853 276.902,67.853C278.07,67.853 278.978,68.237 279.625,69.006C280.273,69.776 280.596,70.877 280.596,72.31L280.596,72.949L274.512,72.949C274.534,73.835 274.791,74.551 275.284,75.099C275.782,75.641 276.413,75.913 277.176,75.913C277.719,75.913 278.178,75.802 278.554,75.581C278.931,75.359 279.26,75.066 279.542,74.701L280.48,75.431C279.727,76.588 278.599,77.166 277.093,77.166ZM276.902,69.114C276.283,69.114 275.762,69.341 275.342,69.795C274.921,70.243 274.661,70.874 274.562,71.688L279.061,71.688L279.061,71.571C279.016,70.791 278.806,70.188 278.43,69.762C278.054,69.33 277.544,69.114 276.902,69.114ZM294.869,77L286.95,77L286.95,75.896L291.134,71.248C291.753,70.545 292.18,69.975 292.412,69.538C292.65,69.095 292.769,68.638 292.769,68.168C292.769,67.537 292.578,67.02 292.196,66.616C291.814,66.212 291.305,66.01 290.669,66.01C289.905,66.01 289.31,66.228 288.884,66.666C288.464,67.097 288.253,67.7 288.253,68.475L286.718,68.475C286.718,67.363 287.075,66.464 287.788,65.777C288.508,65.091 289.468,64.748 290.669,64.748C291.792,64.748 292.68,65.044 293.333,65.636C293.986,66.223 294.313,67.006 294.313,67.985C294.313,69.175 293.555,70.592 292.038,72.235L288.801,75.747L294.869,75.747L294.869,77ZM304.33,71.845C304.33,73.644 304.022,74.98 303.408,75.855C302.794,76.729 301.834,77.166 300.528,77.166C299.238,77.166 298.284,76.74 297.664,75.888C297.044,75.03 296.723,73.752 296.701,72.053L296.701,70.002C296.701,68.226 297.008,66.906 297.623,66.043C298.237,65.18 299.2,64.748 300.511,64.748C301.812,64.748 302.769,65.166 303.383,66.001C303.998,66.832 304.313,68.115 304.33,69.853L304.33,71.845ZM302.794,69.745C302.794,68.445 302.611,67.498 302.246,66.906C301.881,66.309 301.303,66.01 300.511,66.01C299.725,66.01 299.153,66.306 298.793,66.898C298.433,67.49 298.248,68.4 298.237,69.629L298.237,72.086C298.237,73.392 298.425,74.358 298.801,74.983C299.183,75.603 299.759,75.913 300.528,75.913C301.286,75.913 301.848,75.619 302.213,75.033C302.584,74.446 302.777,73.522 302.794,72.26L302.794,69.745ZM311.599,77L310.055,77L310.055,66.765L306.959,67.902L306.959,66.508L311.358,64.856L311.599,64.856L311.599,77ZM322.836,72.941L324.512,72.941L324.512,74.194L322.836,74.194L322.836,77L321.292,77L321.292,74.194L315.788,74.194L315.788,73.29L321.2,64.914L322.836,64.914L322.836,72.941ZM317.531,72.941L321.292,72.941L321.292,67.014L321.109,67.346L317.531,72.941Z" style="fill:white;fill-rule:nonzero;"/>
        </g>
    </g>
</svg>
