<?xml version="1.0" encoding="UTF-8" standalone="no"?>
<!DOCTYPE svg PUBLIC "-//W3C//DTD SVG 1.1//EN" "http://www.w3.org/Graphics/SVG/1.1/DTD/svg11.dtd">
<svg width="100%" height="100%" viewBox="0 0 1920 171" version="1.1" xmlns="http://www.w3.org/2000/svg" xmlns:xlink="http://www.w3.org/1999/xlink" xml:space="preserve" xmlns:serif="http://www.serif.com/" style="fill-rule:evenodd;clip-rule:evenodd;stroke-miterlimit:1.5;">
    <g id="Artboard1" transform="matrix(1,0,0,0.141668,0,0)">
        <rect x="0" y="0" width="1920" height="1200" style="fill:none;"/>
        <clipPath id="_clip1">
            <rect x="0" y="0" width="1920" height="1200"/>
        </clipPath>
        <g clip-path="url(#_clip1)">
            <g transform="matrix(1.39033,0,0,9.81397,-142.21,-960.986)">
                <g transform="matrix(1.11699,0,0,1.11699,-11.966,-11.4553)">
                    <path d="M133.422,119.6L133.422,204.28L156.265,204.28L156.265,119.6L187.402,119.6L187.402,100.394L102.285,100.394L102.285,119.6L133.422,119.6Z" style="fill:rgb(0,255,14);fill-rule:nonzero;"/>
                    <path d="M217.666,152.773C217.666,148.214 218.175,143.801 219.194,139.533C220.212,135.265 221.837,131.458 224.068,128.111C226.299,124.765 229.209,122.097 232.798,120.109C236.387,118.12 240.752,117.126 245.893,117.126C251.034,117.126 255.399,118.12 258.988,120.109C262.577,122.097 265.487,124.765 267.718,128.111C269.949,131.458 271.573,135.265 272.592,139.533C273.61,143.801 274.12,148.214 274.12,152.773C274.12,157.138 273.61,161.382 272.592,165.505C271.573,169.627 269.949,173.337 267.718,176.635C265.487,179.933 262.577,182.576 258.988,184.565C255.399,186.553 251.034,187.548 245.893,187.548C240.752,187.548 236.387,186.553 232.798,184.565C229.209,182.576 226.299,179.933 224.068,176.635C221.837,173.337 220.212,169.627 219.194,165.505C218.175,161.382 217.666,157.138 217.666,152.773ZM194.823,152.773C194.823,160.339 195.987,167.396 198.315,173.943C200.643,180.491 203.989,186.19 208.354,191.04C212.719,195.89 218.078,199.697 224.432,202.461C230.785,205.226 237.939,206.608 245.893,206.608C253.944,206.608 261.122,205.226 267.427,202.461C273.732,199.697 279.067,195.89 283.432,191.04C287.797,186.19 291.143,180.491 293.471,173.943C295.799,167.396 296.963,160.339 296.963,152.773C296.963,145.013 295.799,137.811 293.471,131.167C291.143,124.522 287.797,118.727 283.432,113.78C279.067,108.833 273.732,104.953 267.427,102.14C261.122,99.327 253.944,97.92 245.893,97.92C237.939,97.92 230.785,99.327 224.432,102.14C218.078,104.953 212.719,108.833 208.354,113.78C203.989,118.727 200.643,124.522 198.315,131.167C195.987,137.811 194.823,145.013 194.823,152.773Z" style="fill:rgb(0,255,14);fill-rule:nonzero;"/>
                    <path d="M312.531,100.394L312.531,204.28L333.92,204.28L333.92,131.385L334.211,131.385L359.673,204.28L377.278,204.28L402.741,130.658L403.032,130.658L403.032,204.28L424.42,204.28L424.42,100.394L392.265,100.394L369.276,171.834L368.985,171.834L344.687,100.394L312.531,100.394Z" style="fill:rgb(0,255,14);fill-rule:nonzero;"/>
                    <path d="M507.791,142.443L507.791,118.145L529.18,118.145C531.217,118.145 533.181,118.314 535.072,118.654C536.964,118.993 538.637,119.6 540.092,120.473C541.547,121.346 542.711,122.558 543.584,124.11C544.457,125.662 544.893,127.651 544.893,130.076C544.893,134.44 543.584,137.593 540.965,139.533C538.346,141.473 535,142.443 530.926,142.443L507.791,142.443ZM484.948,100.394L484.948,204.28L535.291,204.28C539.946,204.28 544.481,203.698 548.895,202.534C553.308,201.37 557.237,199.576 560.68,197.151C564.124,194.726 566.864,191.597 568.901,187.766C570.938,183.934 571.956,179.4 571.956,174.162C571.956,167.663 570.38,162.11 567.228,157.502C564.075,152.895 559.298,149.669 552.896,147.826C557.552,145.595 561.068,142.734 563.445,139.242C565.821,135.75 567.009,131.385 567.009,126.147C567.009,121.297 566.209,117.223 564.609,113.925C563.008,110.627 560.753,107.984 557.843,105.995C554.933,104.007 551.441,102.576 547.367,101.703C543.293,100.83 538.782,100.394 533.836,100.394L484.948,100.394ZM507.791,186.529L507.791,158.011L532.672,158.011C537.618,158.011 541.595,159.151 544.602,161.431C547.609,163.71 549.113,167.517 549.113,172.852C549.113,175.568 548.652,177.799 547.731,179.545C546.809,181.291 545.572,182.673 544.02,183.692C542.468,184.71 540.674,185.438 538.637,185.874C536.6,186.311 534.466,186.529 532.235,186.529L507.791,186.529Z" style="fill:rgb(0,255,14);fill-rule:nonzero;"/>
                    <path d="M675.552,164.995L675.552,100.394L652.708,100.394L652.708,164.995C652.708,172.755 651.156,178.454 648.052,182.091C644.948,185.729 639.322,187.548 631.174,187.548C626.518,187.548 622.808,186.893 620.044,185.583C617.279,184.274 615.121,182.576 613.569,180.491C612.017,178.405 610.999,176.005 610.514,173.289C610.029,170.573 609.786,167.808 609.786,164.995L609.786,100.394L586.943,100.394L586.943,164.995C586.943,179.157 590.798,189.633 598.51,196.423C606.221,203.213 617.11,206.608 631.174,206.608C645.045,206.608 655.909,203.189 663.766,196.35C671.623,189.512 675.552,179.06 675.552,164.995Z" style="fill:rgb(0,255,14);fill-rule:nonzero;"/>
                    <path d="M718.183,119.6L718.183,204.28L741.026,204.28L741.026,119.6L772.163,119.6L772.163,100.394L687.046,100.394L687.046,119.6L718.183,119.6Z" style="fill:rgb(0,255,14);fill-rule:nonzero;"/>
                    <path d="M853.352,135.313L875.467,135.313C874.788,129.3 873.139,123.965 870.52,119.309C867.901,114.653 864.579,110.748 860.554,107.596C856.528,104.443 851.969,102.043 846.877,100.394C841.784,98.745 836.377,97.92 830.654,97.92C822.7,97.92 815.546,99.327 809.193,102.14C802.839,104.953 797.48,108.833 793.115,113.78C788.75,118.727 785.403,124.522 783.075,131.167C780.747,137.811 779.584,145.013 779.584,152.773C779.584,160.339 780.747,167.396 783.075,173.943C785.403,180.491 788.75,186.19 793.115,191.04C797.48,195.89 802.839,199.697 809.193,202.461C815.546,205.226 822.7,206.608 830.654,206.608C837.056,206.608 842.924,205.638 848.259,203.698C853.594,201.758 858.25,198.945 862.227,195.259C866.204,191.573 869.405,187.111 871.83,181.873C874.255,176.635 875.758,170.767 876.34,164.268L854.225,164.268C853.352,171.252 850.951,176.878 847.022,181.146C843.094,185.414 837.638,187.548 830.654,187.548C825.513,187.548 821.148,186.553 817.559,184.565C813.97,182.576 811.06,179.933 808.829,176.635C806.598,173.337 804.973,169.627 803.955,165.505C802.936,161.382 802.427,157.138 802.427,152.773C802.427,148.214 802.936,143.801 803.955,139.533C804.973,135.265 806.598,131.458 808.829,128.111C811.06,124.765 813.97,122.097 817.559,120.109C821.148,118.12 825.513,117.126 830.654,117.126C833.467,117.126 836.158,117.587 838.729,118.508C841.299,119.43 843.603,120.715 845.64,122.364C847.677,124.013 849.375,125.929 850.733,128.111C852.091,130.294 852.964,132.695 853.352,135.313Z" style="fill:rgb(0,255,14);fill-rule:nonzero;"/>
                    <path d="M891.909,100.394L891.909,204.28L914.752,204.28L914.752,159.466L956.801,159.466L956.801,204.28L979.645,204.28L979.645,100.394L956.801,100.394L956.801,140.26L914.752,140.26L914.752,100.394L891.909,100.394Z" style="fill:rgb(0,255,14);fill-rule:nonzero;"/>
                    <path d="M999.724,100.394L999.724,204.28L1078.58,204.28L1078.58,185.074L1022.57,185.074L1022.57,159.612L1072.91,159.612L1072.91,141.861L1022.57,141.861L1022.57,119.6L1077.42,119.6L1077.42,100.394L999.724,100.394Z" style="fill:rgb(0,255,14);fill-rule:nonzero;"/>
                    <path d="M1116.85,147.39L1116.85,118.145L1141.88,118.145C1147.11,118.145 1151.04,119.284 1153.66,121.564C1156.28,123.843 1157.59,127.505 1157.59,132.549C1157.59,137.787 1156.28,141.57 1153.66,143.898C1151.04,146.226 1147.11,147.39 1141.88,147.39L1116.85,147.39ZM1094.01,100.394L1094.01,204.28L1116.85,204.28L1116.85,163.686L1139.69,163.686C1145.42,163.686 1149.54,164.947 1152.06,167.469C1154.58,169.991 1156.23,173.968 1157.01,179.4C1157.59,183.571 1158.03,187.936 1158.32,192.495C1158.61,197.054 1159.38,200.982 1160.65,204.28L1183.49,204.28C1182.42,202.825 1181.62,201.055 1181.09,198.969C1180.56,196.884 1180.17,194.677 1179.92,192.349C1179.68,190.021 1179.51,187.742 1179.41,185.511C1179.32,183.28 1179.22,181.34 1179.12,179.691C1178.93,177.072 1178.57,174.453 1178.03,171.834C1177.5,169.215 1176.65,166.814 1175.49,164.632C1174.32,162.449 1172.82,160.558 1170.98,158.957C1169.13,157.357 1166.81,156.168 1163.99,155.392L1163.99,155.101C1169.81,152.773 1174.01,149.378 1176.58,144.916C1179.15,140.454 1180.43,135.168 1180.43,129.057C1180.43,125.08 1179.73,121.37 1178.32,117.926C1176.92,114.483 1174.88,111.452 1172.21,108.833C1169.55,106.214 1166.34,104.152 1162.61,102.649C1158.88,101.145 1154.68,100.394 1150.02,100.394L1094.01,100.394Z" style="fill:rgb(0,255,14);fill-rule:nonzero;"/>
                </g>
                <g transform="matrix(0.958543,0,0,0.981562,83.1554,3.99837)">
                    <g transform="matrix(0.912991,0,0,0.912991,332.92,18.8679)">
                        <path d="M1220.88,216.851L1220.88,100.683L1104.71,100.683" style="fill:none;stroke:rgb(255,53,28);stroke-width:27.77px;"/>
                    </g>
                    <g transform="matrix(0.921418,-7.13908e-17,7.13908e-17,0.921418,124.806,8.70612)">
                        <path d="M1435.58,110.791L1329.83,216.536" style="fill:none;stroke:rgb(255,53,28);stroke-width:27.52px;"/>
                    </g>
                </g>
            </g>
        </g>
    </g>
</svg>
